# xmcd CD database file
#
# Track frame offsets:
#	150
#	15095
#	31526
#	49748
#	60933
#	79371
#	96965
#	110646
#	137030
#	154781
#	171065
#	193594
#	206634
#	238190
#	255982
#	269707
#	282754
#	296867
#	307573
#	325718
#
# Disc length: 4465 seconds
#
# Revision: 0
# Processed by: cddbd v1.5.2PL0 Copyright (c) Steve Scherf et al.
# Submitted via: CDex 1.51
#
DISCID=0d116f14
DTITLE=Johnny Ventura - 20 Exitos Vol.1
DYEAR=2000
DGENRE=Merengue
TTITLE0=El Tabaco
TTITLE1=La Protesta De Los Feos
TTITLE2=El Carbonero
TTITLE3=El Popular
TTITLE4=La Muerte De Martin
TTITLE5=Bobine
TTITLE6=Que Pasa Papo
TTITLE7=Contagiando
TTITLE8=La Proclama
TTITLE9=Te Digo Ahorita
TTITLE10=El Guataco
TTITLE11=Ya No Es Lo Mismo Que Ayer
TTITLE12=La Agarradera
TTITLE13=Cana Brava
TTITLE14=Mama Es La Que Sabe
TTITLE15=Apagame La Vela
TTITLE16=El Apagon
TTITLE17=Juanita Morel
TTITLE18=El Pinguino
TTITLE19=Juanita Morel 2
EXTD=YEAR: 2000
EXTT0=
EXTT1=
EXTT2=
EXTT3=
EXTT4=
EXTT5=
EXTT6=
EXTT7=
EXTT8=
EXTT9=
EXTT10=
EXTT11=
EXTT12=
EXTT13=
EXTT14=
EXTT15=
EXTT16=
EXTT17=
EXTT18=
EXTT19=
PLAYORDER=
